# Blender v2.75 (sub 0) OBJ File: 'Apple.blend'
# www.blender.org
mtllib Apple.mtl
o Icosphere
v 0.002760 -1.029156 -0.014675
v 0.723623 -0.447385 0.525642
v -0.276372 -0.447385 0.850566
v -0.894411 -0.447381 -0.000083
v -0.276372 -0.447385 -0.850732
v 0.723623 -0.447385 -0.525809
v 0.276388 0.446491 0.850649
v -0.723607 0.446491 0.525725
v -0.723607 0.446491 -0.525725
v 0.276388 0.446491 -0.850649
v 0.894426 0.446487 0.000000
v 0.064711 0.932858 -0.000000
v -0.161062 -0.865371 0.492588
v 0.426716 -0.865370 0.301604
v 0.262969 -0.526799 0.808477
v 0.850748 -0.526797 -0.000534
v 0.426716 -0.865370 -0.316418
v -0.524337 -0.865368 -0.007407
v -0.688089 -0.526797 0.499463
v -0.161062 -0.865371 -0.507402
v -0.688089 -0.526797 -0.500531
v 0.262969 -0.526799 -0.809546
v 0.951058 0.000000 0.309013
v 0.951058 0.000000 -0.309013
v 0.000000 0.000000 1.000000
v 0.587786 0.000000 0.809017
v -0.951058 0.000000 0.309013
v -0.587786 0.000000 0.809017
v -0.587786 0.000000 -0.809017
v -0.951058 0.000000 -0.309013
v 0.587786 0.000000 -0.809017
v 0.000000 0.000000 -1.000000
v 0.688189 0.521059 0.499997
v -0.262869 0.521060 0.809012
v -0.850648 0.521058 0.000000
v -0.262869 0.521060 -0.809012
v 0.688189 0.521059 -0.499997
v 0.162456 0.785792 0.499995
v 0.525730 0.785790 0.000000
v -0.425323 0.785792 0.309011
v -0.425323 0.785792 -0.309011
v 0.162456 0.785792 -0.499995
v 0.064531 0.798322 0.000000
v 0.019940 0.798322 0.061373
v -0.052207 0.798322 0.037930
v -0.052207 0.798322 -0.037930
v 0.019940 0.798322 -0.061373
v 0.031355 0.904688 0.048617
v -0.024280 0.917768 0.030046
v -0.024280 0.917768 -0.030046
v 0.031355 0.904688 -0.048617
v 0.179277 1.049347 -0.000000
v 0.040536 0.958611 0.048617
v 0.001420 1.000281 0.030046
v 0.001420 1.000281 -0.030046
v 0.040536 0.958611 -0.048617
v 0.110563 0.977441 -0.000000
v 0.091529 1.007197 0.048617
v 0.060731 1.055341 0.030046
v 0.060731 1.055341 -0.030046
v 0.091529 1.007197 -0.048617
v 0.168205 1.074997 0.000000
v 0.169010 1.065397 0.026225
v 0.152397 1.091367 0.016208
v 0.152397 1.091367 -0.016208
v 0.169010 1.065397 -0.026225
v -0.003915 0.983150 -0.000616
v -0.018944 0.934898 -0.000616
v -0.018944 0.934898 0.008816
v -0.003915 0.983150 0.008816
v -0.059997 1.029361 -0.005737
v -0.091347 0.928707 -0.005737
v -0.091347 0.928707 0.013937
v -0.059997 1.029361 0.013937
v -0.095567 1.107431 -0.017674
v -0.164958 0.884643 -0.017674
v -0.164958 0.884643 0.025874
v -0.095567 1.107431 0.025874
v -0.153263 1.153226 -0.022632
v -0.238455 0.879710 -0.022632
v -0.238455 0.879710 0.030832
v -0.153263 1.153226 0.030832
v -0.232310 1.177847 -0.022632
v -0.317502 0.904331 -0.022632
v -0.317502 0.904331 0.030832
v -0.232310 1.177847 0.030832
v -0.312084 1.176139 -0.017900
v -0.382197 0.951036 -0.017900
v -0.382197 0.951036 0.026100
v -0.312084 1.176139 0.026100
v -0.380500 1.148756 -0.009224
v -0.422962 1.012425 -0.009224
v -0.422962 1.012425 0.017424
v -0.380500 1.148756 0.017424
v -0.450957 1.108359 0.001884
v -0.458018 1.085686 0.001884
v -0.458018 1.085686 0.006316
v -0.450957 1.108359 0.006316
vt 0.018513 0.815388
vt 0.059612 0.815388
vt 0.059612 0.856487
vt 0.018513 0.856487
vt 0.924763 0.084920
vt 0.965862 0.084920
vt 0.965862 0.126018
vt 0.924763 0.126018
vt 0.893513 0.909138
vt 0.934612 0.909138
vt 0.934612 0.950237
vt 0.893513 0.950237
vn 0.109600 -0.935000 0.337300
vn 0.710900 -0.649500 0.269800
vn -0.287600 -0.934700 0.208900
vn -0.292600 -0.932300 -0.212600
vn 0.112700 -0.931100 -0.347000
vn 0.905000 -0.330100 0.268500
vn 0.025000 -0.330500 0.943500
vn -0.889800 -0.330300 0.315000
vn -0.574000 -0.329700 -0.749600
vn 0.535700 -0.329500 -0.777500
vn 0.802600 -0.125700 0.583100
vn -0.306600 -0.125800 0.943500
vn -0.992100 -0.125600 0.000000
vn -0.306600 -0.125400 -0.943500
vn 0.802600 -0.125400 -0.583100
vn 0.365300 0.725500 0.583300
vn -0.441900 0.725500 0.527700
vn -0.638400 0.725500 -0.257200
vn 0.047300 0.725500 -0.686600
vn 0.667600 0.725500 -0.167200
vn -0.033600 0.999400 0.000000
vn 0.427500 0.849000 -0.310600
vn 0.365300 0.725500 -0.583300
vn 0.027200 0.999400 0.019700
vn -0.163300 0.849000 -0.502600
vn -0.441900 0.725500 -0.527700
vn -0.010400 0.999400 -0.031900
vn -0.528400 0.849000 0.000000
vn -0.638400 0.725500 0.257200
vn -0.010400 0.999400 0.031900
vn -0.163300 0.849000 0.502600
vn 0.047300 0.725500 0.686600
vn 0.027200 0.999400 -0.019700
vn 0.427500 0.849000 0.310600
vn 0.667600 0.725500 0.167200
vn 0.888400 0.332000 -0.316900
vn 0.794400 0.189200 -0.577200
vn 0.576000 0.332000 -0.747000
vn -0.026900 0.332000 -0.942900
vn -0.303400 0.189200 -0.933900
vn -0.532500 0.332000 -0.778600
vn -0.905000 0.332000 -0.265800
vn -0.981900 0.189200 0.000000
vn -0.905000 0.332000 0.265800
vn -0.532500 0.332000 0.778600
vn -0.303400 0.189200 0.933900
vn -0.026900 0.332000 0.942900
vn 0.576000 0.332000 0.747000
vn 0.794400 0.189200 0.577200
vn 0.888400 0.332000 0.316900
vn 0.306600 0.125800 -0.943500
vn 0.303600 -0.186300 -0.934400
vn 0.023600 -0.329500 -0.943900
vn -0.802600 0.125800 -0.583100
vn -0.794800 -0.186800 -0.577400
vn -0.890000 -0.329900 -0.314600
vn -0.802600 0.125800 0.583100
vn -0.794600 -0.187900 0.577300
vn -0.574700 -0.330500 0.748700
vn 0.306600 0.125800 0.943500
vn 0.303500 -0.188100 0.934100
vn 0.534600 -0.330400 0.777900
vn 0.992100 0.125800 0.000000
vn 0.982300 -0.187100 0.000000
vn 0.905000 -0.329800 -0.268900
vn 0.479600 -0.640900 -0.599300
vn 0.194400 -0.777400 -0.598300
vn -0.035700 -0.640200 -0.767400
vn -0.421000 -0.642300 -0.640500
vn -0.506000 -0.780200 -0.367700
vn -0.735300 -0.647500 -0.200400
vn -0.732000 -0.651600 0.198800
vn -0.500200 -0.786000 0.363400
vn -0.412800 -0.655500 0.632400
vn 0.715700 -0.643900 -0.270600
vn 0.624000 -0.781500 0.000000
vn 0.360400 -0.932800 0.000000
vn -0.037800 -0.656000 0.753800
vn 0.190800 -0.786700 0.587100
vn 0.474700 -0.653300 0.589800
vn -0.296600 0.138000 0.945000
vn 0.816900 -0.008800 -0.576700
vn -0.973700 0.227700 0.000000
vn 0.816900 -0.008800 0.576700
vn -0.296600 0.138000 -0.945000
vn -0.322100 0.082300 -0.943100
vn -0.322100 0.082300 0.943100
vn -0.954800 0.297400 -0.000000
vn -0.680400 0.732900 0.000000
vn -0.213300 0.227000 -0.950300
vn -0.213300 0.227000 0.950300
vn -0.000500 0.359600 -0.933100
vn -0.000500 0.359600 0.933100
vn 0.590600 -0.564400 -0.576700
vn -0.365800 0.930700 0.000000
vn 0.590600 -0.564400 0.576700
vn 0.911900 0.393600 -0.116100
vn 0.792900 0.579700 -0.187900
vn 0.719400 0.694600 0.000000
vn 0.792900 0.579700 0.187900
vn 0.911900 0.393600 0.116100
vn 0.635900 0.771800 -0.000000
vn 0.195100 -0.060800 0.978900
vn 0.072500 -0.022600 0.997100
vn 0.085200 -0.996400 0.000000
vn 0.072500 -0.022600 -0.997100
vn 0.067000 -0.997800 0.000000
vn 0.513600 -0.858000 0.000000
vn 0.195100 -0.060800 -0.978900
vn 0.910000 0.414600 -0.000000
vn 0.297400 0.954800 -0.000000
vn 0.068700 -0.021400 -0.997400
vn 0.621700 0.783300 -0.000000
vn 0.068700 -0.021400 0.997400
vn -0.585300 -0.810800 0.000000
vn 0.000000 -0.000000 1.000000
vn -0.297400 -0.954800 0.000000
vn 0.000000 0.000000 -1.000000
vn -0.833100 -0.553200 0.000000
vn -0.059600 0.018600 -0.998100
vn -0.021400 0.999800 -0.000000
vn -0.059600 0.018600 0.998100
vn -0.497400 0.867500 0.000000
vn -0.143200 0.044600 -0.988700
vn -0.371600 0.928400 -0.000000
vn -0.143200 0.044600 0.988700
vn -0.188200 0.058600 0.980400
vn -0.902000 -0.431600 0.000000
vn -0.188200 0.058600 -0.980400
vn 0.853100 -0.145200 0.501100
vn 0.853100 -0.145200 -0.501100
vn 0.562800 -0.585000 -0.584000
vn 0.562800 -0.585000 0.584000
usemtl Material.001
s off
f 1/1/1 14/2/1 13/3/1
f 2/1/2 14/2/2 16/3/2
f 1/1/3 13/2/3 18/3/3
f 1/1/4 18/2/4 20/3/4
f 1/1/5 20/2/5 17/3/5
f 2/1/6 16/2/6 23/3/6
f 3/1/7 15/2/7 25/3/7
f 4/1/8 19/2/8 27/3/8
f 5/1/9 21/2/9 29/3/9
f 6/1/10 22/2/10 31/3/10
f 2/1/11 23/2/11 26/3/11
f 3/1/12 25/2/12 28/3/12
f 4/1/13 27/2/13 30/3/13
f 5/1/14 29/2/14 32/3/14
f 6/1/15 31/2/15 24/3/15
f 7/1/16 33/2/16 38/3/16
f 8/1/17 34/2/17 40/3/17
f 9/1/18 35/2/18 41/3/18
f 10/1/19 36/2/19 42/3/19
f 11/1/20 37/2/20 39/3/20
f 41/1/21 40/2/21 45/3/21 46/4/21
f 39/1/22 37/2/22 42/3/22
f 37/1/23 10/2/23 42/3/23
f 38/1/24 39/2/24 43/3/24 44/4/24
f 42/1/25 36/2/25 41/3/25
f 36/1/26 9/2/26 41/3/26
f 42/1/27 41/2/27 46/3/27 47/4/27
f 41/1/28 35/2/28 40/3/28
f 35/1/29 8/2/29 40/3/29
f 40/1/30 38/2/30 44/3/30 45/4/30
f 40/1/31 34/2/31 38/3/31
f 34/1/32 7/2/32 38/3/32
f 39/1/33 42/2/33 47/3/33 43/4/33
f 38/1/34 33/2/34 39/3/34
f 33/1/35 11/2/35 39/3/35
f 24/1/36 37/2/36 11/3/36
f 24/1/37 31/2/37 37/3/37
f 31/1/38 10/2/38 37/3/38
f 32/1/39 36/2/39 10/3/39
f 32/1/40 29/2/40 36/3/40
f 29/1/41 9/2/41 36/3/41
f 30/1/42 35/2/42 9/3/42
f 30/1/43 27/2/43 35/3/43
f 27/1/44 8/2/44 35/3/44
f 28/1/45 34/2/45 8/3/45
f 28/1/46 25/2/46 34/3/46
f 25/1/47 7/2/47 34/3/47
f 26/1/48 33/2/48 7/3/48
f 26/1/49 23/2/49 33/3/49
f 23/1/50 11/2/50 33/3/50
f 31/1/51 32/2/51 10/3/51
f 31/1/52 22/2/52 32/3/52
f 22/1/53 5/2/53 32/3/53
f 29/1/54 30/2/54 9/3/54
f 29/1/55 21/2/55 30/3/55
f 21/1/56 4/2/56 30/3/56
f 27/1/57 28/2/57 8/3/57
f 27/1/58 19/2/58 28/3/58
f 19/1/59 3/2/59 28/3/59
f 25/1/60 26/2/60 7/3/60
f 25/1/61 15/2/61 26/3/61
f 15/1/62 2/2/62 26/3/62
f 23/1/63 24/2/63 11/3/63
f 23/1/64 16/2/64 24/3/64
f 16/1/65 6/2/65 24/3/65
f 17/1/66 22/2/66 6/3/66
f 17/1/67 20/2/67 22/3/67
f 20/1/68 5/2/68 22/3/68
f 20/1/69 21/2/69 5/3/69
f 20/1/70 18/2/70 21/3/70
f 18/1/71 4/2/71 21/3/71
f 18/1/72 19/2/72 4/3/72
f 18/1/73 13/2/73 19/3/73
f 13/1/74 3/2/74 19/3/74
f 16/1/75 17/2/75 6/3/75
f 16/1/76 14/2/76 17/3/76
f 14/1/77 1/2/77 17/3/77
f 13/1/78 15/2/78 3/3/78
f 13/1/79 14/2/79 15/3/79
f 14/1/80 2/2/80 15/3/80
f 45/5/81 44/6/81 48/7/81 49/8/81
f 43/5/82 47/6/82 51/7/82 12/8/82
f 46/5/83 45/6/83 49/7/83 50/8/83
f 44/5/84 43/6/84 12/7/84 48/8/84
f 47/5/85 46/6/85 50/7/85 51/8/85
f 51/5/86 50/6/86 55/7/86 56/8/86
f 49/5/87 48/6/87 53/7/87 54/8/87
f 55/5/88 50/6/88 68/7/88 67/8/88
f 55/5/89 54/6/89 59/7/89 60/8/89
f 56/5/90 55/6/90 60/7/90 61/8/90
f 54/5/91 53/6/91 58/7/91 59/8/91
f 61/5/92 60/6/92 65/7/92 66/8/92
f 59/5/93 58/6/93 63/7/93 64/8/93
f 57/5/94 61/6/94 66/7/94 52/8/94
f 60/5/95 59/6/95 64/7/95 65/8/95
f 58/5/96 57/6/96 52/7/96 63/8/96
f 52/5/97 66/6/97 62/7/97
f 66/5/98 65/6/98 62/7/98
f 65/5/99 64/6/99 62/7/99
f 64/5/100 63/6/100 62/7/100
f 63/5/101 52/6/101 62/7/101
f 70/9/102 67/10/102 71/11/102 74/12/102
f 54/5/88 55/6/88 67/7/88 70/8/88
f 49/5/88 54/6/88 70/7/88 69/8/88
f 50/5/88 49/6/88 69/7/88 68/8/88
f 73/9/103 74/10/103 78/11/103 77/12/103
f 69/9/104 70/10/104 74/11/104 73/12/104
f 68/9/105 69/10/105 73/11/105 72/12/105
f 67/9/106 68/10/106 72/11/106 71/12/106
f 76/1/107 77/2/107 81/3/107 80/4/107
f 72/9/108 73/10/108 77/11/108 76/12/108
f 71/9/109 72/10/109 76/11/109 75/12/109
f 74/9/110 71/10/110 75/11/110 78/12/110
f 82/9/111 79/10/111 83/11/111 86/12/111
f 75/9/112 76/10/112 80/11/112 79/12/112
f 78/9/113 75/10/113 79/11/113 82/12/113
f 77/9/114 78/10/114 82/11/114 81/12/114
f 84/9/115 85/10/115 89/11/115 88/12/115
f 81/9/116 82/10/116 86/11/116 85/12/116
f 80/1/117 81/2/117 85/3/117 84/4/117
f 79/9/118 80/10/118 84/11/118 83/12/118
f 88/9/119 89/10/119 93/11/119 92/12/119
f 83/9/120 84/10/120 88/11/120 87/12/120
f 86/9/121 83/10/121 87/11/121 90/12/121
f 85/9/122 86/10/122 90/11/122 89/12/122
f 94/9/123 91/10/123 95/11/123 98/12/123
f 87/9/124 88/10/124 92/11/124 91/12/124
f 90/9/125 87/10/125 91/11/125 94/12/125
f 89/9/126 90/10/126 94/11/126 93/12/126
f 96/9/88 97/10/88 98/11/88 95/12/88
f 93/9/127 94/10/127 98/11/127 97/12/127
f 92/9/128 93/10/128 97/11/128 96/12/128
f 91/9/129 92/10/129 96/11/129 95/12/129
f 48/5/130 12/6/130 53/7/130
f 12/5/131 51/6/131 56/7/131
f 12/5/132 56/6/132 61/7/132 57/8/132
f 53/5/133 12/6/133 57/7/133 58/8/133
