# Blender v2.75 (sub 0) OBJ File: 'Banana.blend'
# www.blender.org
mtllib Banana.mtl
o Cylinder
v 0.057825 1.482001 -0.436330
v -0.428438 1.423266 -0.057435
v 0.151531 1.730724 -0.277515
v -0.334733 1.671988 0.101381
v 0.343226 1.697429 -0.036660
v -0.143038 1.638693 0.342235
v 0.441214 1.415411 0.045378
v -0.045049 1.356676 0.424273
v 0.347509 1.166689 -0.113437
v -0.138755 1.107953 0.265458
v 0.155814 1.199984 -0.354291
v -0.330450 1.141248 0.024604
v -0.564396 1.686056 0.316483
v -0.683021 1.473207 0.210219
v -0.421817 1.661272 0.539476
v -0.397863 1.423639 0.656204
v -0.516488 1.210790 0.549939
v -0.659067 1.235574 0.326947
v -0.798292 1.740735 0.536525
v -0.871783 1.608871 0.470692
v -0.709961 1.725381 0.674674
v -0.695121 1.578162 0.746990
v -0.768611 1.446297 0.681157
v -0.856942 1.461651 0.543008
v -1.004555 1.875355 0.794119
v -1.026879 1.835299 0.774121
v -0.977723 1.870691 0.836084
v -0.973215 1.825971 0.858051
v -0.995539 1.785915 0.838053
v -1.022371 1.790580 0.796088
v -1.243479 1.976857 0.919077
v -1.290098 1.893208 0.877316
v -1.187446 1.967117 1.006713
v -1.178032 1.873728 1.052586
v -1.224651 1.790079 1.010825
v -1.280684 1.799819 0.923190
v 0.405301 1.667115 -0.687214
v 0.463183 1.904844 -0.497477
v 0.659327 1.869591 -0.260515
v 0.797589 1.596609 -0.213291
v 0.739707 1.358879 -0.403029
v 0.543563 1.394132 -0.639990
v 0.886482 2.080657 -0.732653
v 0.902076 2.144703 -0.681537
v 0.954919 2.135206 -0.617697
v 0.992168 2.061662 -0.604975
v 0.976574 1.997616 -0.656092
v 0.923731 2.007113 -0.719931
v 0.944908 2.192189 -0.694402
v 0.950029 2.213219 -0.677618
v 0.967380 2.210100 -0.656656
v 0.979611 2.185952 -0.652478
v 0.974491 2.164922 -0.669263
v 0.957139 2.168040 -0.690225
vt 0.043748 0.637574
vt 0.044319 0.637106
vt 0.044439 0.638118
vt 0.045351 0.637480
vt 0.044282 0.637158
vt 0.044800 0.636611
vt 0.044149 0.636616
vt 0.043808 0.636983
vt 0.054590 0.638555
vt 0.045298 0.646736
vt 0.988185 0.908456
vt 0.043097 0.632904
vt 0.039929 0.635468
vt 0.046365 0.638612
vt 0.045605 0.639927
vt 0.039061 0.640584
vt 0.048309 0.631973
vt 0.921779 0.088144
vt 0.043044 0.639927
vt 0.040894 0.636216
vt 0.043673 0.636063
vt 0.046482 0.636434
vn -0.540200 0.588000 -0.602100
vn -0.008000 0.989700 0.143200
vn 0.532200 0.401700 0.745300
vn 0.540200 -0.588000 0.602100
vn -0.528200 0.592400 -0.608400
vn -0.532200 -0.401700 -0.745300
vn 0.008000 -0.989700 -0.143200
vn -0.258700 0.904300 0.339700
vn -0.839500 -0.305400 -0.449400
vn 0.552000 0.407700 0.727300
vn -0.690400 -0.394100 -0.606700
vn 0.373000 -0.585100 0.720100
vn 0.108800 0.993000 0.045900
vn -0.232800 -0.971400 0.046100
vn -0.685400 -0.628100 0.368400
vn 0.031600 -0.460500 0.887100
vn 0.206600 0.978100 -0.023400
vn -0.573000 -0.769900 0.280800
vn 0.460200 0.428400 0.777600
vn -0.475400 0.590500 -0.652100
vn 0.682600 0.376500 0.626300
vn 0.621900 0.394900 0.676200
vn -0.453600 0.587400 -0.670200
vn -0.925300 -0.238300 -0.295200
vn -0.027400 -0.434300 0.900400
vn 0.398000 0.904400 -0.154000
vn -0.818600 0.184700 0.543900
vn -0.207200 0.527000 -0.824200
vn -0.410000 -0.435100 -0.801600
vn 0.478800 -0.591000 0.649200
vn 0.338200 0.934400 -0.112400
vn -0.068500 -0.995400 -0.066800
vn 0.641300 -0.476200 -0.601700
vn 0.224700 -0.922200 -0.314700
vn -0.661200 0.562100 -0.496800
vn 0.406700 0.367900 0.836200
vn -0.415400 -0.370300 -0.830900
vn 0.652000 -0.565300 0.505300
vn -0.721700 0.530500 -0.444600
vn 0.537200 0.400500 0.742300
vn -0.564900 0.594400 -0.572400
vn 0.037300 -0.152000 -0.987700
vn 0.945200 -0.310600 0.100800
vn -0.311800 0.867700 0.387200
vn 0.759100 0.283100 -0.586200
vn 0.446600 0.071900 -0.891800
vn 0.959900 -0.010100 -0.280200
vn -0.663400 0.429200 0.613000
vn 0.766700 -0.040900 -0.640700
vn 0.427800 0.360100 0.829100
usemtl Material
s off
f 1/1/1 2/2/1 4/2/1 3/3/1
f 3/3/2 4/2/2 6/2/2 5/4/2
f 5/4/3 6/2/3 8/5/3 7/6/3
f 7/6/4 8/5/4 10/5/4 9/7/4
f 4/2/5 2/2/5 14/2/5 13/2/5
f 11/8/6 12/2/6 2/2/6 1/1/6
f 9/7/7 10/5/7 12/2/7 11/8/7
f 3/3/8 5/4/8 39/9/8 38/10/8
f 14/2/9 18/2/9 24/2/9 20/2/9
f 8/5/10 6/2/10 15/2/10 16/2/10
f 2/2/11 12/2/11 18/2/11 14/2/11
f 10/5/12 8/5/12 16/2/12 17/2/12
f 6/2/13 4/2/13 13/2/13 15/2/13
f 12/2/14 10/5/14 17/2/14 18/2/14
f 24/2/15 23/2/15 29/2/15 30/2/15
f 17/2/16 16/2/16 22/2/16 23/2/16
f 15/2/17 13/2/17 19/2/17 21/2/17
f 18/2/18 17/2/18 23/2/18 24/2/18
f 16/2/19 15/2/19 21/2/19 22/2/19
f 13/2/20 14/2/20 20/2/20 19/2/20
f 28/11/21 27/11/21 33/11/21 34/11/21
f 22/2/22 21/2/22 27/2/22 28/2/22
f 19/2/23 20/2/23 26/2/23 25/2/23
f 20/2/24 24/2/24 30/2/24 26/2/24
f 23/2/25 22/2/25 28/2/25 29/2/25
f 21/2/26 19/2/26 25/2/26 27/2/26
f 31/11/27 32/11/27 36/11/27 35/11/27 34/11/27 33/11/27
f 25/11/28 26/11/28 32/11/28 31/11/28
f 26/11/29 30/11/29 36/11/29 32/11/29
f 29/11/30 28/11/30 34/11/30 35/11/30
f 27/11/31 25/11/31 31/11/31 33/11/31
f 30/11/32 29/11/32 35/11/32 36/11/32
f 41/12/33 42/13/33 48/14/33 47/15/33
f 9/7/34 11/8/34 42/13/34 41/12/34
f 1/1/35 3/3/35 38/10/35 37/16/35
f 5/4/36 7/6/36 40/17/36 39/9/36
f 11/8/37 1/1/37 37/16/37 42/13/37
f 7/6/38 9/7/38 41/12/38 40/17/38
f 43/18/39 44/18/39 50/18/39 49/18/39
f 39/9/40 40/17/40 46/19/40 45/20/40
f 37/16/41 38/10/41 44/21/41 43/22/41
f 42/13/42 37/16/42 43/22/42 48/14/42
f 40/17/43 41/12/43 47/15/43 46/19/43
f 38/10/44 39/9/44 45/20/44 44/21/44
f 49/18/45 50/18/45 51/18/45 52/18/45 53/18/45 54/18/45
f 48/18/46 43/18/46 49/18/46 54/18/46
f 46/18/47 47/18/47 53/18/47 52/18/47
f 44/18/48 45/18/48 51/18/48 50/18/48
f 47/18/49 48/18/49 54/18/49 53/18/49
f 45/18/50 46/18/50 52/18/50 51/18/50
