# Blender v2.75 (sub 0) OBJ File: 'ChickenLeg.blend'
# www.blender.org
mtllib ChickenLeg.mtl
o Cylinder_Cylinder.002
v 0.206428 1.059589 -1.893165
v 0.547552 1.059589 -1.886239
v 0.206428 0.877046 -1.826725
v 0.547552 0.877046 -1.819799
v 0.206428 0.779917 -1.658493
v 0.547552 0.779917 -1.651567
v 0.206428 0.813650 -1.467186
v 0.547552 0.813650 -1.460260
v 0.206428 0.962460 -1.342320
v 0.547552 0.962460 -1.335393
v 0.206428 1.156718 -1.342320
v 0.547552 1.156718 -1.335393
v 0.206428 1.305528 -1.467186
v 0.547552 1.305528 -1.460260
v 0.206428 1.339260 -1.658493
v 0.547552 1.339260 -1.651567
v 0.206428 1.242131 -1.826725
v 0.547552 1.242132 -1.819799
v 0.816254 0.798130 -1.913847
v 0.816254 1.059589 -2.009011
v 0.816254 0.659011 -1.615105
v 0.816254 0.707326 -1.398874
v 0.816254 0.920470 -1.220026
v 0.816254 1.198708 -1.220026
v 0.816254 1.411852 -1.398874
v 0.816254 1.460167 -1.615105
v 0.816254 1.321048 -1.913847
v 0.994686 0.760617 -1.403673
v 0.994686 0.719610 -1.543781
v 0.994686 0.941516 -1.251881
v 0.994686 1.177662 -1.251881
v 0.994686 1.358561 -1.403673
v 0.994686 1.399568 -1.543781
v 1.078392 0.959404 -1.421574
v 1.078392 0.945663 -1.499503
v 1.078392 1.020023 -1.370708
v 1.078392 1.099155 -1.370708
v 1.078392 1.159774 -1.421574
v 1.078392 1.173515 -1.499503
v 0.968590 0.832228 -1.903760
v 0.968590 1.059589 -1.986512
v 0.968590 0.711252 -1.694223
v 0.968590 1.286950 -1.903760
v 0.968590 1.407926 -1.694223
v 1.073005 0.972985 -1.862117
v 1.073004 1.059589 -1.893638
v 1.073005 0.926904 -1.717490
v 1.073004 1.146193 -1.862117
v 1.073004 1.192274 -1.717490
v -0.240496 1.059589 -1.893165
v -0.240496 0.877046 -1.826725
v -0.240496 0.779917 -1.658493
v -0.240496 0.813650 -1.467186
v -0.240496 0.962460 -1.342319
v -0.240496 1.156718 -1.342319
v -0.240496 1.305528 -1.467186
v -0.240496 1.339260 -1.658493
v -0.240496 1.242131 -1.826725
v -1.273450 1.059588 -2.280401
v -1.273450 0.628135 -2.123364
v -1.273450 0.398564 -1.725735
v -1.273450 0.478293 -1.273568
v -1.273450 0.830017 -0.978437
v -1.273450 1.289160 -0.978437
v -1.273450 1.640883 -1.273568
v -1.273450 1.720613 -1.725735
v -1.273450 1.491041 -2.123364
v -2.442969 1.059588 -2.456845
v -2.442969 0.514719 -2.258529
v -2.442969 0.224800 -1.756374
v -2.442969 0.325488 -1.185346
v -2.442969 0.769670 -0.812633
v -2.442969 1.349508 -0.812633
v -2.442969 1.793689 -1.185346
v -2.442969 1.894377 -1.756374
v -2.442969 1.604458 -2.258528
v -2.859718 1.059588 -2.309412
v -2.859718 0.609487 -2.145588
v -2.859718 0.369993 -1.730773
v -2.859718 0.453169 -1.259062
v -2.859718 0.820095 -0.951175
v -2.859718 1.299082 -0.951175
v -2.859718 1.666008 -1.259062
v -2.859718 1.749183 -1.730773
v -2.859718 1.509689 -2.145588
v -3.329158 1.059588 -1.947089
v -3.329158 0.842383 -1.868033
v -3.329158 0.726811 -1.667856
v -3.329158 0.766949 -1.440223
v -3.329158 0.944016 -1.291647
v -3.329158 1.175160 -1.291647
v -3.329158 1.352227 -1.440223
v -3.329158 1.392365 -1.667856
v -3.329158 1.276793 -1.868033
v -3.511013 1.059588 -1.609179
vt 0.034979 0.632635
vt 0.082209 0.632635
vt 0.082209 0.679865
vt 0.034979 0.679865
vt 0.058594 0.679865
vt 0.079045 0.668057
vt 0.079045 0.644443
vt 0.058594 0.632635
vt 0.038143 0.644443
vt 0.038143 0.668057
vt 0.081053 0.663547
vt 0.072474 0.637145
vt 0.044713 0.637145
vt 0.036135 0.663547
vt 0.921698 0.554510
vt 0.968927 0.554510
vt 0.968927 0.601740
vt 0.921698 0.601740
vn 0.019100 -0.342000 -0.939500
vn 0.010200 -0.866000 -0.500000
vn -0.003500 -0.984800 0.173600
vn -0.015600 -0.642700 0.766000
vn -0.020300 -0.000000 0.999800
vn -0.015600 0.642700 0.766000
vn -0.003500 0.984800 0.173600
vn -0.394500 0.000000 0.918900
vn 0.019100 0.342000 -0.939500
vn 0.010200 0.866000 -0.500000
vn -0.000000 -0.866000 -0.500000
vn 0.255500 0.937800 0.235100
vn -0.394500 -0.590600 0.703900
vn -0.394500 -0.314300 -0.863500
vn -0.410700 -0.893800 0.180000
vn -0.355300 -0.834100 -0.422000
vn -0.394500 0.314300 -0.863500
vn -0.355300 0.834100 -0.422000
vn -0.410700 0.893800 0.180000
vn -0.394500 0.590600 0.703900
vn 0.137500 -0.338800 -0.930800
vn 0.467600 0.000000 -0.883900
vn 0.175700 0.000000 0.984400
vn 0.255500 -0.937800 0.235100
vn 0.371200 0.000000 -0.928600
vn 0.207900 0.628700 0.749300
vn 0.207900 -0.628700 0.749300
vn 1.000000 -0.000000 0.000000
vn 0.860700 0.327300 0.390000
vn 0.860700 -0.327300 0.390000
vn 0.924400 0.370000 0.092900
vn 0.817500 0.000000 0.575900
vn 0.924400 -0.370000 0.092900
vn 0.641300 0.262400 -0.721000
vn 0.460900 0.000000 0.887400
vn 0.147400 0.880500 -0.450600
vn 0.147400 -0.880500 -0.450600
vn 0.137500 0.338800 -0.930800
vn 0.845200 -0.483400 -0.228000
vn 0.217500 0.000000 0.976100
vn 0.845200 0.483400 -0.228000
vn 0.641300 -0.262400 -0.721000
vn 0.332300 0.928900 0.163800
vn -0.000000 0.342000 -0.939700
vn -0.000000 0.866000 -0.500000
vn -0.000000 0.984800 0.173600
vn 0.000000 0.642800 0.766000
vn 0.000000 0.000000 1.000000
vn 0.000000 -0.642800 0.766000
vn -0.000000 -0.342000 -0.939700
vn 0.000000 -0.984800 0.173600
vn 0.140400 0.338600 -0.930400
vn 0.332300 -0.606300 0.722500
vn 0.332300 -0.322600 -0.886300
vn 0.332300 0.816800 -0.471600
vn 0.332300 0.000000 0.943200
vn 0.332300 -0.816800 -0.471600
vn 0.332300 0.322600 -0.886300
vn 0.332300 0.606300 0.722500
vn 0.332300 -0.928900 0.163800
vn -0.315500 0.821800 -0.474500
vn 0.140400 0.636400 0.758500
vn 0.140400 -0.975100 0.171900
vn 0.140400 0.975100 0.171900
vn 0.140400 -0.636400 0.758500
vn 0.140400 -0.338600 -0.930400
vn 0.140400 0.857500 -0.495000
vn 0.140400 0.000000 0.990100
vn 0.140400 -0.857500 -0.495000
vn -0.587100 0.797200 0.140600
vn -0.315500 -0.000000 0.948900
vn -0.315500 -0.821800 -0.474500
vn -0.315500 0.324600 -0.891700
vn -0.315500 0.610000 0.726900
vn -0.315500 -0.934500 0.164800
vn -0.315500 0.934500 0.164800
vn -0.315500 -0.610000 0.726900
vn -0.315500 -0.324600 -0.891700
vn -0.587100 -0.520300 0.620100
vn -0.587100 -0.276900 -0.760700
vn -0.587100 0.701100 -0.404800
vn -0.587100 0.000000 0.809500
vn -0.587100 -0.701100 -0.404800
vn -0.587100 0.276900 -0.760700
vn -0.587100 0.520300 0.620100
vn -0.587100 -0.797200 0.140600
vn -0.867800 0.319500 0.380700
vn -0.867800 -0.489400 0.086300
vn -0.867800 0.489400 0.086300
vn -0.867800 -0.319500 0.380700
vn -0.867800 -0.170000 -0.467000
vn -0.867800 0.430400 -0.248500
vn -0.867800 0.000000 0.497000
vn -0.867800 -0.430400 -0.248500
vn -0.867800 0.170000 -0.467000
usemtl Material.001
s off
f 1/1/1 2/2/1 4/3/1 3/4/1
f 3/1/2 4/2/2 6/3/2 5/4/2
f 5/1/3 6/2/3 8/3/3 7/4/3
f 7/1/4 8/2/4 10/3/4 9/4/4
f 9/1/5 10/2/5 12/3/5 11/4/5
f 11/1/6 12/2/6 14/3/6 13/4/6
f 13/1/7 14/2/7 16/3/7 15/4/7
f 12/1/8 10/2/8 23/3/8 24/4/8
f 17/1/9 18/2/9 2/3/9 1/4/9
f 15/1/10 16/2/10 18/3/10 17/4/10
f 3/1/11 5/2/11 52/3/11 51/4/11
f 26/1/12 25/2/12 32/3/12 33/4/12
f 10/1/13 8/2/13 22/3/13 23/4/13
f 4/1/14 2/2/14 20/3/14 19/4/14
f 8/1/15 6/2/15 21/3/15 22/4/15
f 6/1/16 4/2/16 19/3/16 21/4/16
f 2/1/17 18/2/17 27/3/17 20/4/17
f 18/1/18 16/2/18 26/3/18 27/4/18
f 16/1/19 14/2/19 25/3/19 26/4/19
f 14/1/20 12/2/20 24/3/20 25/4/20
f 19/1/21 20/2/21 41/3/21 40/4/21
f 29/1/22 33/2/22 39/3/22 35/4/22
f 24/1/23 23/2/23 30/3/23 31/4/23
f 22/1/24 21/2/24 29/3/24 28/4/24
f 21/1/25 26/2/25 33/3/25 29/4/25
f 25/1/26 24/2/26 31/3/26 32/4/26
f 23/1/27 22/2/27 28/3/27 30/4/27
f 35/5/28 39/6/28 38/7/28 37/8/28 36/9/28 34/10/28
f 32/1/29 31/2/29 37/3/29 38/4/29
f 30/1/30 28/2/30 34/3/30 36/4/30
f 33/1/31 32/2/31 38/3/31 39/4/31
f 31/1/32 30/2/32 36/3/32 37/4/32
f 28/1/33 29/2/33 35/3/33 34/4/33
f 41/1/34 43/2/34 48/3/34 46/4/34
f 26/1/35 21/2/35 42/3/35 44/4/35
f 27/1/36 26/2/36 44/3/36 43/4/36
f 21/1/37 19/2/37 40/3/37 42/4/37
f 20/1/38 27/2/38 43/3/38 41/4/38
f 45/5/28 46/11/28 48/12/28 49/13/28 47/14/28
f 42/1/39 40/2/39 45/3/39 47/4/39
f 44/1/40 42/2/40 47/3/40 49/4/40
f 43/1/41 44/2/41 49/3/41 48/4/41
f 40/1/42 41/2/42 46/3/42 45/4/42
f 56/15/43 57/16/43 66/17/43 65/18/43
f 17/1/44 1/2/44 50/3/44 58/4/44
f 15/1/45 17/2/45 58/3/45 57/4/45
f 13/1/46 15/2/46 57/3/46 56/4/46
f 11/1/47 13/2/47 56/3/47 55/4/47
f 9/1/48 11/2/48 55/3/48 54/4/48
f 7/1/49 9/2/49 54/3/49 53/4/49
f 1/1/50 3/2/50 51/3/50 50/4/50
f 5/1/51 7/2/51 53/3/51 52/4/51
f 67/15/52 59/16/52 68/17/52 76/18/52
f 53/15/53 54/16/53 63/17/53 62/18/53
f 50/15/54 51/16/54 60/17/54 59/18/54
f 57/15/55 58/16/55 67/17/55 66/18/55
f 54/15/56 55/16/56 64/17/56 63/18/56
f 51/15/57 52/16/57 61/17/57 60/18/57
f 58/15/58 50/16/58 59/17/58 67/18/58
f 55/15/59 56/16/59 65/17/59 64/18/59
f 52/15/60 53/16/60 62/17/60 61/18/60
f 75/15/61 76/16/61 85/17/61 84/18/61
f 64/15/62 65/16/62 74/17/62 73/18/62
f 61/15/63 62/16/63 71/17/63 70/18/63
f 65/15/64 66/16/64 75/17/64 74/18/64
f 62/15/65 63/16/65 72/17/65 71/18/65
f 59/15/66 60/16/66 69/17/66 68/18/66
f 66/15/67 67/16/67 76/17/67 75/18/67
f 63/15/68 64/16/68 73/17/68 72/18/68
f 60/15/69 61/16/69 70/17/69 69/18/69
f 83/15/70 84/16/70 93/17/70 92/18/70
f 72/15/71 73/16/71 82/17/71 81/18/71
f 69/15/72 70/16/72 79/17/72 78/18/72
f 76/15/73 68/16/73 77/17/73 85/18/73
f 73/15/74 74/16/74 83/17/74 82/18/74
f 70/15/75 71/16/75 80/17/75 79/18/75
f 74/15/76 75/16/76 84/17/76 83/18/76
f 71/15/77 72/16/77 81/17/77 80/18/77
f 68/15/78 69/16/78 78/17/78 77/18/78
f 80/15/79 81/16/79 90/17/79 89/18/79
f 77/15/80 78/16/80 87/17/80 86/18/80
f 84/15/81 85/16/81 94/17/81 93/18/81
f 81/15/82 82/16/82 91/17/82 90/18/82
f 78/15/83 79/16/83 88/17/83 87/18/83
f 85/15/84 77/16/84 86/17/84 94/18/84
f 82/15/85 83/16/85 92/17/85 91/18/85
f 79/15/86 80/16/86 89/17/86 88/18/86
f 91/15/87 92/16/87 95/17/87
f 88/15/88 89/16/88 95/17/88
f 92/15/89 93/16/89 95/17/89
f 89/15/90 90/16/90 95/17/90
f 86/15/91 87/16/91 95/17/91
f 93/15/92 94/16/92 95/17/92
f 90/15/93 91/16/93 95/17/93
f 87/15/94 88/16/94 95/17/94
f 94/15/95 86/16/95 95/17/95
