# Blender v2.75 (sub 0) OBJ File: 'CupOfCoffee.blend'
# www.blender.org
mtllib CupOfCoffee.mtl
o Cylinder
v 0.000000 -1.000000 -1.000000
v 0.000000 1.000000 -1.000000
v 0.500000 1.000000 -0.866025
v 0.500000 -1.000000 -0.866025
v 0.866025 -1.000000 -0.500000
v 1.000000 -1.000000 0.000000
v 0.866025 -1.000000 0.500000
v 0.500000 -1.000000 0.866025
v 0.000000 -1.000000 1.000000
v -0.500000 -1.000000 0.866026
v -0.866025 -1.000000 0.500000
v -1.000000 -1.000000 0.000000
v -0.866026 -1.000000 -0.499999
v -0.500001 -1.000000 -0.866025
v -0.500001 1.000000 -0.866025
v -0.000000 1.000000 -0.866661
v 0.433331 1.000000 -0.750551
v 0.866025 1.000000 -0.500000
v 1.000000 1.000000 0.000000
v 1.000000 0.835353 0.000000
v 0.997153 0.832888 -0.010624
v 0.982260 0.818442 -0.066205
v 0.980576 0.812845 -0.072493
v 0.969274 0.770873 -0.114671
v 0.968752 0.764399 -0.116617
v 0.964521 0.705458 -0.132411
v 0.965038 0.699088 -0.130480
v 0.969274 0.640178 -0.114671
v 0.971013 0.634543 -0.108181
v 0.982260 0.593012 -0.066205
v 0.985477 0.590354 -0.054199
v 1.000000 0.576510 0.000000
v 1.000000 -0.450232 0.000000
v 1.000000 -0.450232 -0.000000
v 0.982260 -0.467892 -0.066206
v 0.969274 -0.516298 -0.114671
v 0.964521 -0.582480 -0.132411
v 0.969274 -0.648705 -0.114671
v 0.982260 -0.697228 -0.066206
v 1.000000 -0.715047 -0.000000
v 1.000000 -0.715047 0.000000
v 0.982260 -0.697228 0.066205
v 0.969274 -0.648705 0.114671
v 0.964521 -0.582480 0.132410
v 0.969274 -0.516298 0.114671
v 0.982260 -0.467892 0.066205
v 0.996292 0.579534 0.013837
v 0.982260 0.593012 0.066205
v 0.980295 0.599281 0.073538
v 0.969274 0.640178 0.114671
v 0.968752 0.646517 0.116617
v 0.964521 0.705458 0.132411
v 0.964961 0.710881 0.130767
v 0.969274 0.770873 0.114671
v 0.970580 0.775201 0.109796
v 0.982260 0.818441 0.066205
v 0.984561 0.820438 0.057621
v 0.866025 1.000000 0.500000
v 0.500000 1.000000 0.866025
v 0.000000 1.000000 1.000000
v -0.500000 1.000000 0.866026
v -0.866025 1.000000 0.500000
v -1.000000 1.000000 0.000000
v -0.866026 1.000000 -0.499999
v -0.433331 1.000000 -0.750550
v 0.750551 1.000000 -0.433331
v -0.000000 -0.848005 -0.866661
v 0.433331 -0.848005 -0.750551
v 0.866661 1.000000 0.000000
v 0.750551 1.000000 0.433331
v 0.433331 1.000000 0.750551
v 0.000000 1.000000 0.866661
v -0.433330 1.000000 0.750551
v -0.750550 1.000000 0.433331
v -0.866661 1.000000 0.000000
v -0.750551 1.000000 -0.433330
v -0.433331 -0.848005 -0.750550
v 0.750551 -0.848005 -0.433331
v -0.750551 -0.848005 -0.433330
v -0.866661 -0.848005 0.000000
v -0.750551 -0.848005 0.433331
v -0.433330 -0.848005 0.750551
v 0.000000 -0.848005 0.866661
v 0.433331 -0.848005 0.750551
v 0.750551 -0.848005 0.433331
v 0.866661 -0.848005 0.000000
v 1.316157 0.705458 -0.132411
v 1.285213 0.646929 -0.114671
v 1.396674 0.662888 -0.132411
v 1.347101 0.763987 -0.114671
v 1.344993 0.621510 -0.114671
v 1.448356 0.704266 -0.114671
v 1.262560 0.604083 -0.066205
v 1.468750 0.572865 -0.132411
v 1.534539 0.580276 -0.114671
v 1.369753 0.806833 -0.066205
v 1.486190 0.734557 -0.066205
v 1.307159 0.591220 -0.066205
v 1.402961 0.565453 -0.114671
v 1.582700 0.585701 -0.066205
v 1.254269 0.588400 -0.000000
v 1.486781 -0.253626 -0.132411
v 1.552144 -0.264155 -0.114671
v 1.599993 -0.271863 -0.066206
v 1.378045 0.822515 0.000000
v 1.500038 0.745644 0.000000
v 1.600328 0.587687 0.000000
v 1.293311 0.580132 -0.000000
v 1.354800 0.560028 -0.066205
v 1.421418 -0.243097 -0.114671
v 1.617507 -0.274685 -0.000000
v 1.262560 0.604083 0.066205
v 1.473153 -0.338224 -0.132411
v 1.533166 -0.366182 -0.114671
v 1.577098 -0.386648 -0.066206
v 1.593179 -0.394139 -0.000000
v 1.369753 0.806833 0.066205
v 1.486190 0.734557 0.066205
v 1.582700 0.585701 0.066205
v 1.599993 -0.271863 0.066205
v 1.307159 0.591220 0.066205
v 1.337171 0.558042 0.000000
v 1.373569 -0.235389 -0.066206
v 1.413140 -0.310267 -0.114671
v 1.577098 -0.386648 0.066205
v 1.285213 0.646929 0.114671
v 1.396539 -0.502682 -0.132411
v 1.433519 -0.557597 -0.114671
v 1.460589 -0.597798 -0.066206
v 1.470498 -0.612512 -0.000000
v 1.460589 -0.597798 0.066205
v 1.347101 0.763987 0.114671
v 1.448356 0.704266 0.114671
v 1.534539 0.580276 0.114671
v 1.552144 -0.264155 0.114671
v 1.533166 -0.366182 0.114671
v 1.344993 0.621510 0.114671
v 1.354800 0.560028 0.066205
v 1.356056 -0.232568 -0.000000
v 1.369208 -0.289801 -0.066206
v 1.359560 -0.447767 -0.114671
v 1.433519 -0.557597 0.114671
v 1.316157 0.705458 0.132411
v 1.275955 -0.583882 -0.132411
v 1.275096 -0.650081 -0.114671
v 1.274467 -0.698543 -0.066206
v 1.274237 -0.716281 -0.000000
v 1.274467 -0.698543 0.066205
v 1.275096 -0.650081 0.114671
v 1.396674 0.662888 0.132411
v 1.468750 0.572864 0.132411
v 1.486781 -0.253626 0.132410
v 1.473153 -0.338225 0.132410
v 1.396539 -0.502682 0.132410
v 1.402961 0.565453 0.114671
v 1.373570 -0.235389 0.066205
v 1.353127 -0.282310 -0.000000
v 1.332489 -0.407566 -0.066206
v 1.276815 -0.517682 -0.114671
v 1.275955 -0.583882 0.132410
v 1.421418 -0.243097 0.114671
v 1.413140 -0.310267 0.114671
v 1.359560 -0.447767 0.114671
v 1.276815 -0.517682 0.114671
v 1.369208 -0.289801 0.066205
v 1.322581 -0.392851 -0.000000
v 1.277444 -0.469220 -0.066206
v 1.277674 -0.451482 -0.000000
v 1.277444 -0.469220 0.066205
v 1.332489 -0.407566 0.066205
v -0.000000 0.075997 -0.866661
v 0.433331 0.075997 -0.750551
v -0.433331 0.075997 -0.750550
v 0.750551 0.075997 -0.433331
v 0.866661 0.075997 0.000000
v 0.750551 0.075997 0.433331
v 0.433331 0.075997 0.750551
v 0.000000 0.075997 0.866661
v -0.433330 0.075997 0.750551
v -0.750551 0.075997 0.433331
v -0.866661 0.075997 0.000000
v -0.750551 0.075997 -0.433330
v -0.000000 0.075997 0.000000
vt 0.064636 0.817779
vt 0.066220 0.818174
vt 0.067050 0.818849
vt 0.066474 0.819069
vt 0.068247 0.820368
vt 0.068545 0.821403
vt 0.067168 0.820271
vt 0.065705 0.819058
vt 0.064318 0.817504
vt 0.062592 0.816066
vt 0.060659 0.814558
vt 0.058479 0.812865
vt 0.060774 0.814594
vt 0.062703 0.816388
vt 0.065403 0.817648
vt 0.066318 0.818125
vt 0.067846 0.819615
vt 0.068450 0.820045
vt 0.069000 0.820732
vt 0.069257 0.820768
vt 0.069357 0.821029
vt 0.069549 0.821020
vt 0.069569 0.821256
vt 0.069779 0.821298
vt 0.069898 0.821653
vt 0.070089 0.821768
vt 0.070294 0.822066
vt 0.070448 0.822117
vt 0.070625 0.822270
vt 0.070727 0.822275
vt 0.070803 0.822285
vt 0.074418 0.825856
vt 0.074968 0.825019
vt 0.074635 0.824649
vt 0.074113 0.824117
vt 0.073377 0.823478
vt 0.072330 0.822855
vt 0.070894 0.822325
vt 0.070610 0.822991
vt 0.071163 0.822995
vt 0.071814 0.823985
vt 0.072206 0.824568
vt 0.072967 0.825197
vt 0.073642 0.825551
vt 0.074137 0.825760
vt 0.070788 0.822212
vt 0.070669 0.822083
vt 0.070562 0.821944
vt 0.070275 0.821764
vt 0.070082 0.821577
vt 0.069628 0.821422
vt 0.069545 0.821200
vt 0.069046 0.821154
vt 0.068673 0.820889
vt 0.068747 0.820983
vt 0.068929 0.820730
vt 0.067503 0.819982
vt 0.066492 0.819450
vt 0.065605 0.818860
vt 0.064885 0.818239
vt 0.064423 0.817680
vt 0.064319 0.817315
vt 0.064720 0.817334
vt 0.065517 0.817627
vt 0.067751 0.819467
vt 0.064755 0.842368
vt 0.063092 0.843366
vt 0.062319 0.840866
vt 0.062821 0.840590
vt 0.068020 0.819873
vt 0.067389 0.819876
vt 0.065611 0.818970
vt 0.064912 0.818360
vt 0.064500 0.817799
vt 0.064460 0.817427
vt 0.064846 0.817375
vt 0.061144 0.843385
vt 0.061752 0.840831
vt 0.065706 0.840682
vt 0.063130 0.840077
vt 0.061280 0.840501
vt 0.061021 0.839965
vt 0.061062 0.839365
vt 0.061380 0.838859
vt 0.061897 0.838586
vt 0.062471 0.838615
vt 0.062941 0.838937
vt 0.063171 0.839469
vt 0.065716 0.838743
vt 0.064763 0.837045
vt 0.063078 0.836062
vt 0.061126 0.836070
vt 0.059444 0.837061
vt 0.058479 0.838758
vt 0.058479 0.840713
vt 0.059452 0.842409
vt 0.072087 0.823244
vt 0.072251 0.823375
vt 0.072208 0.823366
vt 0.072096 0.823268
vt 0.072034 0.823248
vt 0.072471 0.823593
vt 0.072378 0.823531
vt 0.072589 0.823684
vt 0.072293 0.823487
vt 0.083779 0.830885
vt 0.082594 0.830372
vt 0.085135 0.831908
vt 0.086572 0.833554
vt 0.087986 0.836054
vt 0.072010 0.823268
vt 0.081673 0.830302
vt 0.082846 0.831396
vt 0.082169 0.830804
vt 0.083479 0.832092
vt 0.083979 0.832718
vt 0.084209 0.833093
vt 0.085224 0.835272
vt 0.083794 0.832960
vt 0.072528 0.823655
vt 0.083287 0.834263
vt 0.083073 0.832622
vt 0.081092 0.830627
vt 0.081549 0.830518
vt 0.080266 0.830094
vt 0.080155 0.830115
vt 0.080084 0.830056
vt 0.080067 0.829970
vt 0.080102 0.829902
vt 0.080180 0.829862
vt 0.080288 0.829857
vt 0.080915 0.831270
vt 0.081131 0.830659
vt 0.080361 0.830016
vt 0.078617 0.828594
vt 0.079149 0.829036
vt 0.078103 0.828190
vt 0.077718 0.827977
vt 0.077557 0.828019
vt 0.077672 0.828197
vt 0.078047 0.828497
vt 0.081975 0.833185
vt 0.082251 0.832168
vt 0.080378 0.829900
vt 0.078589 0.828846
vt 0.081198 0.832153
vt 0.081095 0.831104
vt 0.080342 0.830037
vt 0.079561 0.829339
vt 0.081520 0.831645
vt 0.079148 0.829196
vt 0.079696 0.829511
vt 0.079526 0.829468
vt 0.064823 0.816387
vt 0.066049 0.816329
vt 0.063918 0.817013
vt 0.063567 0.818055
vt 0.063860 0.819246
vt 0.064739 0.820285
vt 0.066011 0.820899
vt 0.067357 0.820899
vt 0.068366 0.820238
vt 0.068671 0.819111
vt 0.068258 0.817868
vt 0.067297 0.816860
vt 0.964705 0.909890
vt 0.964161 0.908948
vt 0.966191 0.908404
vt 0.968221 0.907860
vt 0.968221 0.908948
vt 0.965647 0.906374
vt 0.966735 0.906374
vt 0.964161 0.907860
vt 0.967677 0.909890
vt 0.967677 0.906918
vt 0.964705 0.906918
vt 0.966735 0.910434
vt 0.965647 0.910434
vn 0.258800 0.000000 -0.965900
vn 0.000000 -1.000000 -0.000000
vn -0.258800 0.000000 -0.965900
vn 0.000000 1.000000 0.000000
vn 0.707100 0.000000 -0.707100
vn 0.965900 -0.000000 -0.258800
vn 0.965900 0.000000 0.258800
vn 0.707100 0.000000 0.707100
vn 0.258800 0.000000 0.965900
vn -0.258800 0.000000 0.965900
vn -0.707100 0.000000 0.707100
vn -0.965900 0.000000 0.258800
vn -0.965900 0.000000 -0.258800
vn -0.707100 0.000000 -0.707100
vn 0.000000 -0.290100 -0.957000
vn -0.000000 0.258800 -0.965900
vn -0.118300 -0.244000 -0.962500
vn 0.005500 -0.258800 -0.965900
vn 0.005200 0.287500 -0.957800
vn 0.131400 0.233500 -0.963400
vn 0.016100 -0.752800 -0.658000
vn 0.012900 0.707000 -0.707000
vn -0.253000 -0.689800 -0.678300
vn -0.211500 -0.188300 -0.959100
vn 0.222100 0.164200 -0.961100
vn 0.027900 -0.706800 -0.706800
vn 0.022300 0.743800 -0.668000
vn 0.372400 0.614200 -0.695800
vn 0.604800 0.404900 -0.685800
vn 0.038400 -0.973400 -0.225800
vn 0.028900 0.965500 -0.258700
vn -0.238300 -0.943400 -0.230600
vn -0.485500 -0.587700 -0.647300
vn -0.261300 -0.005800 -0.965300
vn 0.261300 0.005600 -0.965300
vn 0.710600 0.014600 -0.703500
vn 0.045100 -0.964900 -0.258600
vn 0.033000 0.971600 -0.234300
vn 0.513300 0.820500 -0.251700
vn 0.815900 0.523400 -0.245600
vn 0.966400 0.019400 -0.256400
vn 0.045500 -0.973300 0.224900
vn 0.032800 0.965400 0.258700
vn -0.238300 -0.943400 0.230600
vn -0.493000 -0.846600 -0.200800
vn -0.710600 -0.016500 -0.703400
vn -0.261400 0.037700 -0.964500
vn 0.259100 -0.045300 -0.964800
vn 0.699600 -0.135100 -0.701700
vn 0.947800 -0.191100 -0.255300
vn 0.038100 -0.965200 0.258600
vn 0.029100 0.971800 0.233900
vn 0.513300 0.820500 0.251700
vn 0.815900 0.523400 0.245600
vn 0.966400 0.019400 0.256400
vn 0.947800 -0.191100 0.255300
vn 0.029900 -0.755800 0.654200
vn 0.021200 0.706900 0.706900
vn 0.015100 -0.707000 0.707000
vn 0.013600 0.746000 0.665800
vn 0.372400 0.614200 0.695800
vn 0.604800 0.404900 0.685800
vn 0.710600 0.014600 0.703500
vn 0.699600 -0.135100 0.701700
vn -0.253000 -0.689800 0.678300
vn -0.493000 -0.846600 0.200800
vn -0.966300 -0.022900 -0.256300
vn -0.713300 0.074200 -0.696900
vn -0.256700 0.110700 -0.960100
vn 0.247100 -0.122400 -0.961200
vn 0.641500 -0.344400 -0.685500
vn 0.847000 -0.471700 -0.245300
vn 0.847000 -0.471700 0.245300
vn 0.641500 -0.344400 0.685500
vn 0.006300 -0.293100 0.956100
vn 0.004700 0.258800 0.965900
vn -0.118300 -0.244000 0.962500
vn -0.485500 -0.587700 0.647300
vn -0.966300 -0.022900 0.256300
vn -0.965800 0.067600 -0.250300
vn -0.701000 0.248000 -0.668700
vn -0.170800 0.229800 -0.958200
vn 0.147700 -0.237200 -0.960200
vn 0.358000 -0.638300 -0.681500
vn 0.457500 -0.855400 -0.243100
vn 0.457500 -0.855400 0.243100
vn 0.358000 -0.638300 0.681500
vn 0.000000 -0.258800 0.965900
vn 0.000000 0.290100 0.957000
vn 0.131400 0.233500 0.963400
vn 0.222100 0.164200 0.961100
vn 0.261300 0.005600 0.965300
vn 0.259100 -0.045300 0.964800
vn 0.247100 -0.122400 0.961200
vn 0.147700 -0.237200 0.960200
vn -0.211500 -0.188300 0.959100
vn -0.710600 -0.016500 0.703400
vn -0.965800 0.067600 0.250300
vn -0.933700 0.275100 -0.229400
vn -0.526200 0.551100 -0.647600
vn 0.001200 0.258800 -0.965900
vn -0.001200 -0.258800 -0.965900
vn -0.003200 -0.707100 -0.707100
vn -0.004300 -0.965900 -0.258800
vn -0.004300 -0.965900 0.258800
vn -0.003200 -0.707100 0.707100
vn -0.001200 -0.258800 0.965900
vn -0.261300 -0.005800 0.965300
vn -0.261400 0.037700 0.964500
vn -0.256700 0.110700 0.960100
vn -0.170800 0.229800 0.958200
vn 0.003200 0.707100 -0.707100
vn 0.001200 0.258800 0.965900
vn -0.713300 0.074200 0.696900
vn -0.933700 0.275100 0.229400
vn -0.752300 0.625100 -0.208200
vn 0.004300 0.965900 -0.258800
vn 0.003200 0.707100 0.707100
vn -0.701000 0.248000 0.668700
vn -0.526200 0.551100 0.647600
vn 0.004300 0.965900 0.258800
vn -0.752300 0.625100 0.208200
usemtl Material.001
s off
f 1/1/1 2/2/1 3/3/1 4/4/1
f 1/1/2 4/4/2 5/5/2 6/6/2 7/7/2 8/8/2 9/9/2 10/10/2 11/11/2 12/12/2 13/13/2 14/14/2
f 14/14/3 15/15/3 2/2/3 1/1/3
f 3/3/4 2/2/4 16/16/4 17/3/4
f 4/4/5 3/3/5 18/17/5 5/5/5
f 5/5/6 18/17/6 19/18/6 20/19/6 21/20/6 22/21/6 23/22/6 24/23/6 25/24/6 26/25/6 27/26/6 28/27/6 29/28/6 30/29/6 31/30/6 32/31/6 33/32/6 34/33/6 35/34/6 36/35/6 37/36/6 38/37/6 39/38/6 40/39/6 41/40/6 6/6/6
f 6/6/7 41/40/7 42/41/7 43/42/7 44/43/7 45/44/7 46/45/7 33/32/7 32/31/7 47/46/7 48/47/7 49/48/7 50/49/7 51/50/7 52/51/7 53/52/7 54/53/7 55/54/7 56/55/7 57/56/7 20/19/7 19/18/7 58/57/7 7/7/7
f 7/7/8 58/57/8 59/58/8 8/8/8
f 8/8/9 59/58/9 60/59/9 9/9/9
f 9/9/10 60/59/10 61/60/10 10/10/10
f 10/10/11 61/60/11 62/61/11 11/11/11
f 11/11/12 62/61/12 63/62/12 12/12/12
f 12/12/13 63/62/13 64/63/13 13/13/13
f 13/13/14 64/63/14 15/15/14 14/14/14
f 2/2/4 15/15/4 65/64/4 16/16/4
f 18/17/4 3/3/4 17/3/4 66/65/4
f 172/66/10 171/67/10 67/68/10 68/69/10
f 19/18/4 18/17/4 66/65/4 69/70/4
f 58/57/4 19/18/4 69/70/4 70/71/4
f 59/58/4 58/57/4 70/71/4 71/58/4
f 60/59/4 59/58/4 71/58/4 72/72/4
f 61/60/4 60/59/4 72/72/4 73/73/4
f 62/61/4 61/60/4 73/73/4 74/74/4
f 63/62/4 62/61/4 74/74/4 75/75/4
f 64/63/4 63/62/4 75/75/4 76/76/4
f 15/15/4 64/63/4 76/76/4 65/64/4
f 171/67/9 173/77/9 77/78/9 67/68/9
f 174/79/11 172/66/11 68/69/11 78/80/11
f 68/69/4 67/68/4 77/78/4 79/81/4 80/82/4 81/83/4 82/84/4 83/85/4 84/86/4 85/87/4 86/88/4 78/80/4
f 175/89/12 174/79/12 78/80/12 86/88/12
f 176/90/13 175/89/13 86/88/13 85/87/13
f 177/91/14 176/90/14 85/87/14 84/86/14
f 178/92/3 177/91/3 84/86/3 83/85/3
f 179/93/1 178/92/1 83/85/1 82/84/1
f 180/94/5 179/93/5 82/84/5 81/83/5
f 181/95/6 180/94/6 81/83/6 80/82/6
f 182/96/7 181/95/7 80/82/7 79/81/7
f 173/77/8 182/96/8 79/81/8 77/78/8
f 26/25/15 87/97/15 88/97/15 27/26/15
f 25/24/16 87/97/16 26/25/16
f 87/97/17 89/98/17 91/99/17 88/97/17
f 27/26/18 88/97/18 28/27/18
f 24/23/19 90/100/19 87/97/19 25/24/19
f 89/98/20 87/97/20 90/100/20 92/98/20
f 28/27/21 88/97/21 93/101/21 29/28/21
f 23/22/22 90/100/22 24/23/22
f 88/97/23 91/99/23 98/99/23 93/101/23
f 89/98/24 94/102/24 99/103/24 91/99/24
f 92/98/25 95/102/25 94/102/25 89/98/25
f 29/28/26 93/101/26 30/29/26
f 22/21/27 96/100/27 90/100/27 23/22/27
f 92/98/28 90/100/28 96/100/28 97/98/28
f 95/102/29 92/98/29 97/98/29 100/104/29
f 30/29/30 93/101/30 101/101/30 31/30/30
f 21/20/31 96/100/31 22/21/31
f 93/101/32 98/99/32 108/100/32 101/101/32
f 91/99/33 99/103/33 109/105/33 98/99/33
f 94/102/34 102/106/34 110/107/34 99/103/34
f 95/102/35 103/108/35 102/106/35 94/102/35
f 100/104/36 104/109/36 103/108/36 95/102/36
f 31/30/37 101/101/37 32/31/37
f 20/19/38 105/100/38 96/100/38 21/20/38
f 97/98/39 96/100/39 105/100/39 106/98/39
f 100/104/40 97/98/40 106/98/40 107/104/40
f 104/109/41 100/104/41 107/104/41 111/110/41
f 32/31/42 101/101/42 112/111/42 47/46/42
f 57/56/43 105/100/43 20/19/43
f 101/101/44 108/100/44 121/99/44 112/111/44
f 98/99/45 109/105/45 122/105/45 108/100/45
f 99/103/46 110/107/46 123/112/46 109/105/46
f 102/106/47 113/113/47 124/114/47 110/107/47
f 103/108/48 114/115/48 113/113/48 102/106/48
f 104/109/49 115/116/49 114/115/49 103/108/49
f 111/110/50 116/117/50 115/116/50 104/109/50
f 47/46/51 112/111/51 48/47/51
f 56/55/52 117/100/52 105/100/52 57/56/52
f 106/98/53 105/100/53 117/100/53 118/98/53
f 107/104/54 106/98/54 118/98/54 119/104/54
f 111/110/55 107/104/55 119/104/55 120/118/55
f 116/117/56 111/110/56 120/118/56 125/119/56
f 48/47/57 112/111/57 126/111/57 49/48/57
f 55/54/58 117/100/58 56/55/58
f 49/48/59 126/111/59 50/49/59
f 54/53/60 132/100/60 117/100/60 55/54/60
f 118/98/61 117/100/61 132/100/61 133/99/61
f 119/104/62 118/98/62 133/99/62 134/120/62
f 120/118/63 119/104/63 134/120/63 135/121/63
f 125/119/64 120/118/64 135/121/64 136/122/64
f 137/99/65 126/111/65 112/111/65 121/99/65
f 138/105/66 121/99/66 108/100/66 122/105/66
f 139/123/67 122/105/67 109/105/67 123/112/67
f 140/124/68 123/112/68 110/107/68 124/114/68
f 141/125/69 124/114/69 113/113/69 127/126/69
f 127/126/70 113/113/70 114/115/70 128/127/70
f 128/127/71 114/115/71 115/116/71 129/128/71
f 129/128/72 115/116/72 116/117/72 130/129/72
f 130/129/73 116/117/73 125/119/73 131/130/73
f 131/130/74 125/119/74 136/122/74 142/131/74
f 50/49/75 126/111/75 143/111/75 51/50/75
f 53/52/76 132/100/76 54/53/76
f 126/111/77 137/99/77 150/99/77 143/111/77
f 121/99/78 138/105/78 155/103/78 137/99/78
f 122/105/79 139/123/79 156/132/79 138/105/79
f 123/112/80 140/124/80 157/133/80 139/123/80
f 124/114/81 141/125/81 158/134/81 140/124/81
f 127/126/82 144/135/82 159/136/82 141/125/82
f 128/127/83 145/137/83 144/135/83 127/126/83
f 129/128/84 146/138/84 145/137/84 128/127/84
f 130/129/85 147/139/85 146/138/85 129/128/85
f 131/130/86 148/140/86 147/139/86 130/129/86
f 142/131/87 149/141/87 148/140/87 131/130/87
f 51/50/88 143/111/88 52/51/88
f 52/51/89 143/111/89 132/100/89 53/52/89
f 133/99/90 132/100/90 143/111/90 150/99/90
f 134/120/91 133/99/91 150/99/91 151/102/91
f 135/121/92 134/120/92 151/102/92 152/142/92
f 136/122/93 135/121/93 152/142/93 153/143/93
f 142/131/94 136/122/94 153/143/94 154/144/94
f 149/141/95 142/131/95 154/144/95 160/145/95
f 137/99/96 155/103/96 151/102/96 150/99/96
f 138/105/97 156/132/97 161/146/97 155/103/97
f 139/123/98 157/133/98 165/147/98 156/132/98
f 140/124/99 158/134/99 166/148/99 157/133/99
f 141/125/100 159/136/100 167/149/100 158/134/100
f 36/35/101 159/136/101 144/135/101 37/36/101
f 37/36/102 144/135/102 145/137/102 38/37/102
f 38/37/103 145/137/103 146/138/103 39/38/103
f 39/38/104 146/138/104 147/139/104 40/39/104
f 147/139/105 148/140/105 42/41/105 41/40/105 40/39/105
f 42/41/106 148/140/106 149/141/106 43/42/106
f 43/42/107 149/141/107 160/145/107 44/43/107
f 152/142/108 151/102/108 155/103/108 161/146/108
f 153/143/109 152/142/109 161/146/109 162/150/109
f 154/144/110 153/143/110 162/150/110 163/134/110
f 160/145/111 154/144/111 163/134/111 164/151/111
f 35/34/112 167/149/112 159/136/112 36/35/112
f 44/43/113 160/145/113 164/151/113 45/44/113
f 156/132/114 165/147/114 162/150/114 161/146/114
f 157/133/115 166/148/115 170/125/115 165/147/115
f 158/134/116 167/149/116 168/152/116 166/148/116
f 34/33/117 168/152/117 167/149/117 35/34/117
f 45/44/118 164/151/118 169/153/118 46/45/118
f 163/134/119 162/150/119 165/147/119 170/125/119
f 164/151/120 163/134/120 170/125/120 169/153/120
f 169/153/121 168/152/121 34/33/121 33/32/121 46/45/121
f 166/148/122 168/152/122 169/153/122 170/125/122
f 65/64/8 76/76/8 182/154/8 173/155/8
f 76/76/7 75/75/7 181/156/7 182/154/7
f 75/75/6 74/74/6 180/157/6 181/156/6
f 74/74/5 73/73/5 179/158/5 180/157/5
f 73/73/1 72/72/1 178/159/1 179/158/1
f 72/72/3 71/58/3 177/160/3 178/159/3
f 71/58/14 70/71/14 176/161/14 177/160/14
f 70/71/13 69/70/13 175/162/13 176/161/13
f 69/70/12 66/65/12 174/163/12 175/162/12
f 66/65/11 17/3/11 172/164/11 174/163/11
f 16/16/9 65/64/9 173/155/9 171/165/9
f 17/3/10 16/16/10 171/165/10 172/164/10
f 182/166/4 181/167/4 183/168/4
f 175/169/4 174/170/4 183/168/4
f 178/171/4 177/172/4 183/168/4
f 181/167/4 180/173/4 183/168/4
f 174/170/4 172/174/4 183/168/4
f 177/172/4 176/175/4 183/168/4
f 180/173/4 179/176/4 183/168/4
f 171/177/4 173/178/4 183/168/4
f 173/178/4 182/166/4 183/168/4
f 176/175/4 175/169/4 183/168/4
f 179/176/4 178/171/4 183/168/4
f 172/174/4 171/177/4 183/168/4
