# Blender v2.75 (sub 0) OBJ File: 'Tomato.blend'
# www.blender.org
mtllib Tomato.mtl
o Icosphere
v 0.000000 -0.863584 0.000000
v 0.723607 -0.310804 0.525725
v -0.276388 -0.310804 0.850649
v -0.894426 -0.310800 0.000000
v -0.276388 -0.310804 -0.850649
v 0.723607 -0.310804 -0.525725
v 0.276388 0.447220 0.850649
v -0.723607 0.447220 0.525725
v -0.723607 0.447220 -0.525725
v 0.276388 0.447220 -0.850649
v 0.894426 0.447216 0.000000
v 0.201204 0.900815 -0.018466
v -0.162456 -0.714239 0.499995
v 0.425323 -0.714239 0.309011
v 0.262869 -0.389322 0.809012
v 0.850648 -0.389320 0.000000
v 0.425323 -0.714239 -0.309011
v -0.525730 -0.714236 0.000000
v -0.688189 -0.389321 0.499997
v -0.162456 -0.714239 -0.499995
v -0.688189 -0.389321 -0.499997
v 0.262869 -0.389322 -0.809012
v 0.951058 0.000000 0.309013
v 0.951058 0.000000 -0.309013
v 0.000000 0.000000 1.000000
v 0.587786 0.000000 0.809017
v -0.951058 0.000000 0.309013
v -0.587786 0.000000 0.809017
v -0.587786 0.000000 -0.809017
v -0.951058 0.000000 -0.309013
v 0.587786 0.000000 -0.809017
v 0.000000 0.000000 -1.000000
v 0.688189 0.525736 0.499997
v -0.262869 0.525738 0.809012
v -0.850648 0.525736 0.000000
v -0.262869 0.525738 -0.809012
v 0.688189 0.525736 -0.499997
v 0.162456 0.850654 0.499995
v 0.525730 0.850652 0.000000
v -0.425323 0.850654 0.309011
v -0.425323 0.850654 -0.309011
v 0.162456 0.850654 -0.499995
v 0.211240 0.853539 0.008200
v 0.009717 0.864303 0.008992
v 0.072744 0.853539 0.200407
v -0.191114 0.853539 0.065964
v -0.039214 0.864303 -0.066469
v 0.062273 0.853540 -0.191662
v 0.065721 0.973257 -0.018466
v 0.105187 0.945744 -0.164371
v 0.224634 0.998942 -0.035144
v 0.151056 1.088647 -0.035144
v 0.170636 1.058044 -0.145328
v 0.317971 1.110415 -0.055882
v 0.274802 1.163046 -0.055882
v 0.286290 1.145091 -0.120528
v 0.466431 1.136843 -0.076402
v 0.455244 1.150482 -0.076402
v 0.458221 1.145829 -0.093155
v 0.100628 0.900815 0.203002
v 0.057750 0.973257 0.074484
v 0.208646 0.945744 0.065745
v 0.123865 0.998942 0.219949
v 0.100579 1.088647 0.150154
v 0.211296 1.058044 0.133856
v 0.173076 1.110415 0.301927
v 0.159414 1.163046 0.260976
v 0.224373 1.145091 0.251414
v 0.239527 1.136843 0.436260
v 0.235986 1.150482 0.425649
v 0.252820 1.145829 0.423171
v -0.182673 0.900815 0.092667
v -0.080904 0.973257 0.003233
v -0.014235 0.945744 0.138884
v -0.189263 0.998942 0.120662
v -0.133994 1.088647 0.072092
v -0.075968 1.058044 0.167784
v -0.245687 1.110415 0.197853
v -0.213259 1.163046 0.169356
v -0.179214 1.145091 0.225500
v -0.343658 1.136843 0.311267
v -0.335255 1.150482 0.303883
v -0.326433 1.145829 0.318432
vt 0.053565 0.927718
vt 0.054561 0.929305
vt 0.054541 0.929244
vt 0.054969 0.929997
vt 0.054969 0.929947
vt 0.054575 0.929225
vt 0.055233 0.930412
vt 0.054924 0.929864
vt 0.054885 0.929849
vt 0.055119 0.930228
vt 0.054997 0.929825
vt 0.055186 0.930122
vt 0.055083 0.929930
vt 0.055318 0.930230
vt 0.055070 0.930039
vt 0.055354 0.930414
vt 0.055148 0.930327
vt 0.055348 0.930340
vt 0.055294 0.930453
vt 0.055307 0.930674
vt 0.055467 0.930911
vt 0.055448 0.931303
vt 0.055352 0.930602
vt 0.055667 0.930805
vt 0.055585 0.930527
vt 0.055522 0.930512
vt 0.056116 0.930974
vt 0.056365 0.931676
vt 0.055702 0.931027
vt 0.056042 0.931945
vt 0.057346 0.932502
vt 0.057526 0.933607
vt 0.055817 0.931940
vt 0.056359 0.931324
vt 0.057185 0.933964
vt 0.921039 0.904927
vt 0.921363 0.904588
vt 0.922425 0.906514
vt 0.922439 0.906599
vt 0.058627 0.934721
vt 0.062682 0.930360
vt 0.062682 0.938797
vt 0.063643 0.929187
vt 0.063884 0.929520
vt 0.063534 0.929520
vt 0.923801 0.908471
vt 0.923660 0.908276
vt 0.922407 0.905645
vt 0.922807 0.906637
vt 0.926005 0.911883
vt 0.925850 0.911637
vt 0.923938 0.908725
vt 0.925381 0.911600
vt 0.927062 0.913502
vt 0.929481 0.900389
vt 0.929183 0.899930
vt 0.929235 0.899978
vt 0.929393 0.900105
vt 0.929587 0.900008
vt 0.929256 0.900053
vt 0.930099 0.899930
vt 0.928898 0.900107
vt 0.928794 0.900076
vt 0.929215 0.900053
vt 0.927378 0.900274
vt 0.927065 0.900334
vt 0.928120 0.899691
vt 0.927825 0.899308
vt 0.927932 0.899331
vt 0.928085 0.899440
vt 0.928237 0.899270
vt 0.928034 0.899374
vt 0.927865 0.899466
vt 0.927810 0.899471
vt 0.927198 0.899810
vt 0.927065 0.899892
vt 0.928708 0.898998
vt 0.065265 0.928696
vt 0.065265 0.927718
vt 0.064646 0.928448
vn 0.102400 -0.943500 0.315100
vn 0.700200 -0.661700 0.268000
vn -0.268000 -0.943500 0.194700
vn -0.268000 -0.943500 -0.194700
vn 0.102400 -0.943500 -0.315100
vn 0.857100 -0.437300 0.272400
vn 0.005800 -0.437300 0.899300
vn -0.853500 -0.437300 0.283400
vn -0.533300 -0.437300 -0.724200
vn 0.523900 -0.437300 -0.730900
vn 0.795900 -0.179300 0.578300
vn -0.304000 -0.179300 0.935700
vn -0.983800 -0.179300 0.000000
vn -0.304000 -0.179300 -0.935700
vn 0.795900 -0.179300 -0.578300
vn 0.408900 0.661700 0.628400
vn -0.471300 0.661700 0.583100
vn -0.700200 0.661700 -0.268000
vn 0.038500 0.661700 -0.748800
vn 0.724000 0.661700 -0.194700
vn 0.001500 0.999500 -0.030800
vn 0.491100 0.794700 -0.356800
vn 0.408900 0.661700 -0.628400
vn -0.003700 0.999900 0.009700
vn -0.187600 0.794700 -0.577300
vn -0.471300 0.661700 -0.583100
vn 0.008900 0.999900 -0.006500
vn -0.607100 0.794700 0.000000
vn -0.700200 0.661700 0.268000
vn -0.026600 0.999600 0.008900
vn -0.187600 0.794700 0.577300
vn 0.038500 0.661700 0.748800
vn 0.009400 0.999900 0.006800
vn 0.491100 0.794700 0.356800
vn 0.724000 0.661700 0.194700
vn 0.889700 0.330400 -0.315100
vn 0.794700 0.187600 -0.577300
vn 0.574600 0.330400 -0.748800
vn -0.024700 0.330400 -0.943500
vn -0.303500 0.187600 -0.934200
vn -0.534600 0.330400 -0.777900
vn -0.905000 0.330400 -0.268000
vn -0.982200 0.187600 0.000000
vn -0.905000 0.330400 0.268000
vn -0.534600 0.330400 0.777900
vn -0.303500 0.187600 0.934200
vn -0.024700 0.330400 0.943500
vn 0.574600 0.330400 0.748800
vn 0.794700 0.187600 0.577300
vn 0.889700 0.330400 0.315100
vn 0.306600 0.125600 -0.943500
vn 0.299200 -0.249700 -0.920900
vn 0.005800 -0.437300 -0.899300
vn -0.802600 0.125600 -0.583100
vn -0.783400 -0.249700 -0.569200
vn -0.853500 -0.437300 -0.283400
vn -0.802600 0.125600 0.583100
vn -0.783400 -0.249700 0.569200
vn -0.533300 -0.437300 0.724200
vn 0.306600 0.125600 0.943500
vn 0.299200 -0.249700 0.920900
vn 0.523900 -0.437300 0.730900
vn 0.992100 0.125600 0.000000
vn 0.968300 -0.249700 0.000000
vn 0.857100 -0.437300 -0.272400
vn 0.471300 -0.661700 -0.583100
vn 0.187600 -0.794700 -0.577300
vn -0.038500 -0.661700 -0.748800
vn -0.408900 -0.661700 -0.628400
vn -0.491100 -0.794700 -0.356800
vn -0.724000 -0.661700 -0.194700
vn -0.724000 -0.661700 0.194700
vn -0.491100 -0.794700 0.356800
vn -0.408900 -0.661700 0.628400
vn 0.700200 -0.661700 -0.268000
vn 0.607100 -0.794700 0.000000
vn 0.331300 -0.943500 0.000000
vn -0.038500 -0.661700 0.748800
vn 0.187600 -0.794700 0.577300
vn 0.471300 -0.661700 0.583100
vn 0.790600 -0.183700 -0.584100
vn 0.058800 0.997500 -0.038100
vn -0.045200 0.998500 0.029300
vn -0.034300 0.997100 0.067400
vn 0.053400 0.997800 0.038500
vn 0.758200 -0.313800 -0.571600
vn -0.862600 0.424000 -0.275900
vn 0.077700 0.305900 0.948900
vn 0.563200 -0.580900 -0.587600
vn -0.793200 0.528400 -0.302800
vn 0.086000 0.110900 0.990100
vn 0.083700 -0.860500 -0.502600
vn -0.527300 0.789900 -0.313100
vn 0.111100 0.091100 0.989600
vn 0.772600 0.633700 -0.038700
vn 0.037500 0.964500 -0.261200
vn 0.119200 0.097700 0.988100
vn -0.889800 0.273100 0.365600
vn 0.782200 -0.313800 0.538300
vn 0.768400 -0.365700 0.525100
vn 0.735700 -0.580900 0.348300
vn 0.036200 0.528400 -0.848200
vn -0.912000 0.110900 0.394900
vn 0.503200 -0.860500 -0.079600
vn 0.130100 0.789900 -0.599300
vn -0.903600 0.091100 0.418600
vn 0.281300 0.633700 0.720600
vn 0.259700 0.964500 -0.047200
vn -0.899500 0.097700 0.425700
vn 0.032900 0.516100 -0.855900
vn -0.682500 0.273100 -0.677900
vn -0.192200 -0.313800 0.929800
vn -0.035200 -0.580900 0.813200
vn 0.795700 0.528400 -0.296100
vn -0.718200 0.110900 -0.687000
vn 0.268900 -0.860500 0.432800
vn 0.602800 0.789900 -0.112900
vn -0.736700 0.091100 -0.670100
vn -0.554800 0.633700 0.539100
vn 0.144300 0.964500 0.221000
vn -0.741700 0.097700 -0.663500
vn -0.386700 0.012500 0.922100
vn 0.796900 0.522100 -0.304000
vn -0.026100 0.998300 0.051200
usemtl Material.002
s off
f 1/1/1 14/2/1 13/3/1
f 2/4/2 14/2/2 16/5/2
f 1/1/3 13/3/3 18/6/3
f 1/1/4 18/6/4 20/2/4
f 1/1/5 20/2/5 17/2/5
f 2/4/6 16/5/6 23/7/6
f 3/8/7 15/9/7 25/10/7
f 4/11/8 19/9/8 27/12/8
f 5/13/9 21/11/9 29/14/9
f 6/15/10 22/5/10 31/16/10
f 2/4/11 23/7/11 26/17/11
f 3/8/12 25/10/12 28/10/12
f 4/11/13 27/12/13 30/14/13
f 5/13/14 29/14/14 32/18/14
f 6/15/15 31/16/15 24/19/15
f 7/20/16 33/21/16 38/22/16
f 8/16/17 34/23/17 40/24/17
f 9/25/18 35/26/18 41/27/18
f 10/24/19 36/24/19 42/28/19
f 11/21/20 37/29/20 39/30/20
f 42/28/21 41/27/21 47/31/21 48/32/21
f 39/30/22 37/29/22 42/28/22
f 37/29/23 10/24/23 42/28/23
f 40/24/24 38/22/24 45/33/24 46/34/24
f 42/28/25 36/24/25 41/27/25
f 36/24/26 9/25/26 41/27/26
f 39/30/27 42/28/27 48/32/27 43/35/27
f 41/27/28 35/26/28 40/24/28
f 35/26/29 8/16/29 40/24/29
f 41/27/30 40/24/30 46/34/30 47/31/30
f 40/24/31 34/23/31 38/22/31
f 34/23/32 7/20/32 38/22/32
f 38/22/33 39/30/33 43/35/33 45/33/33
f 38/22/34 33/21/34 39/30/34
f 33/21/35 11/21/35 39/30/35
f 24/19/36 37/29/36 11/21/36
f 24/19/37 31/16/37 37/29/37
f 31/16/38 10/24/38 37/29/38
f 32/18/39 36/24/39 10/24/39
f 32/18/40 29/14/40 36/24/40
f 29/14/41 9/25/41 36/24/41
f 30/14/42 35/26/42 9/25/42
f 30/14/43 27/12/43 35/26/43
f 27/12/44 8/16/44 35/26/44
f 28/10/45 34/23/45 8/16/45
f 28/10/46 25/10/46 34/23/46
f 25/10/47 7/20/47 34/23/47
f 26/17/48 33/21/48 7/20/48
f 26/17/49 23/7/49 33/21/49
f 23/7/50 11/21/50 33/21/50
f 31/16/51 32/18/51 10/24/51
f 31/16/52 22/5/52 32/18/52
f 22/5/53 5/13/53 32/18/53
f 29/14/54 30/14/54 9/25/54
f 29/14/55 21/11/55 30/14/55
f 21/11/56 4/11/56 30/14/56
f 27/12/57 28/10/57 8/16/57
f 27/12/58 19/9/58 28/10/58
f 19/9/59 3/8/59 28/10/59
f 25/10/60 26/17/60 7/20/60
f 25/10/61 15/9/61 26/17/61
f 15/9/62 2/4/62 26/17/62
f 23/7/63 24/19/63 11/21/63
f 23/7/64 16/5/64 24/19/64
f 16/5/65 6/15/65 24/19/65
f 17/2/66 22/5/66 6/15/66
f 17/2/67 20/2/67 22/5/67
f 20/2/68 5/13/68 22/5/68
f 20/2/69 21/11/69 5/13/69
f 20/2/70 18/6/70 21/11/70
f 18/6/71 4/11/71 21/11/71
f 18/6/72 19/9/72 4/11/72
f 18/6/73 13/3/73 19/9/73
f 13/3/74 3/8/74 19/9/74
f 16/5/75 17/2/75 6/15/75
f 16/5/76 14/2/76 17/2/76
f 14/2/77 1/1/77 17/2/77
f 13/3/78 15/9/78 3/8/78
f 13/3/79 14/2/79 15/9/79
f 14/2/80 2/4/80 15/9/80
f 43/36/81 48/37/81 50/38/81 12/39/81
f 48/32/82 47/31/82 44/40/82
f 47/31/83 46/41/83 44/40/83
f 46/41/84 45/42/84 44/40/84
f 45/43/85 43/44/85 44/45/85
f 12/39/86 50/38/86 53/46/86 51/47/86
f 48/37/87 44/48/87 49/49/87 50/38/87
f 44/48/88 43/36/88 12/39/88 49/49/88
f 51/47/89 53/46/89 56/50/89 54/51/89
f 50/38/90 49/49/90 52/52/90 53/46/90
f 49/49/91 12/39/91 51/47/91 52/52/91
f 54/51/92 56/50/92 59/53/92 57/53/92
f 53/46/93 52/52/93 55/54/93 56/50/93
f 52/52/94 51/47/94 54/51/94 55/54/94
f 57/53/95 59/53/95 58/53/95
f 56/50/96 55/54/96 58/53/96 59/53/96
f 55/54/97 54/51/97 57/53/97 58/53/97
f 44/55/98 45/56/98 60/57/98 61/58/98
f 60/57/99 62/59/99 65/60/99 63/57/99
f 45/56/100 43/61/100 62/59/100 60/57/100
f 63/57/101 65/60/101 68/62/101 66/63/101
f 62/59/102 61/58/102 64/64/102 65/60/102
f 61/58/103 60/57/103 63/57/103 64/64/103
f 66/63/104 68/62/104 71/65/104 69/66/104
f 65/60/105 64/64/105 67/62/105 68/62/105
f 64/64/106 63/57/106 66/63/106 67/62/106
f 69/66/107 71/65/107 70/65/107
f 68/62/108 67/62/108 70/65/108 71/65/108
f 67/62/109 66/63/109 69/66/109 70/65/109
f 43/61/110 44/55/110 61/58/110 62/59/110
f 47/67/111 46/68/111 72/69/111 73/70/111
f 72/69/112 74/71/112 77/72/112 75/72/112
f 75/72/113 77/72/113 80/73/113 78/74/113
f 74/71/114 73/70/114 76/72/114 77/72/114
f 73/70/115 72/69/115 75/72/115 76/72/115
f 78/74/116 80/73/116 83/75/116 81/76/116
f 77/72/117 76/72/117 79/73/117 80/73/117
f 76/72/118 75/72/118 78/74/118 79/73/118
f 81/76/119 83/75/119 82/75/119
f 80/73/120 79/73/120 82/75/120 83/75/120
f 79/73/121 78/74/121 81/76/121 82/75/121
f 46/68/122 45/77/122 74/71/122 72/69/122
f 45/77/123 47/67/123 73/70/123 74/71/123
f 46/78/124 45/79/124 47/80/124
